:SAMPLES-PER-SECOND 30
:FULLY-SPECIFIED
:DEGREES
504
root  -53.8909 34.7555 26.7576 -168.779 42.5966 -175.798
RightUpLeg  -11.0723 -23.1995 6.00049
RightLeg  9.59908 -9.68153 -0.995053
RightFoot  2.02489 0.0122953 -0.135858
RightToes  -22.9984 -0.0987968 -0.199113
Spine  -0.892211 -0.345103 1.58731
Spine1  -1.63346 -0.253167 3.51868
HEad  -67.5331 -0.0625326 -5.22819
LeftShoulder1  -1.94126e-019 -3.10601e-018 -2.51263e-017
LeftArm  -16.0779 7.51881 -78.1662
LeftForeArm  27.2847 -71.9467 -34.7732
LeftHand  -0.230503 3.46769 13.3812
RightShoulder  -4.96962e-017 0 -2.36833e-017
RightArm  -57.8858 -11.6169 67.0624
RightForeArm  77.9921 79.3599 60.3193
RightHand  -0.022425 -5.93434 -1.74994
LeftUpLeg  -10.7459 1.71756 5.24991
LeftLeg  21.4839 12.3951 3.93986
LeftFoot  -2.46698 -0.0124078 -0.414714
LeftToes  -23.8702 1.9075e-006 4.29692e-008
505
root  -53.6107 34.6923 26.6464 -169.171 41.1422 -175.701
RightUpLeg  -10.7393 -24.1001 6.08488
RightLeg  10.9418 -10.3461 -1.30694
RightFoot  0.902919 0.00367299 0.0534287
RightToes  -22.1031 -0.0983393 -0.193513
Spine  -0.913728 -0.229915 1.81006
Spine1  -1.62908 0.0463829 3.90288
HEad  -67.4949 0.956076 -4.66537
LeftShoulder1  -1.94126e-019 -3.10601e-018 -2.51263e-017
LeftArm  -14.9985 0.696775 -80.485
LeftForeArm  24.9687 -71.7454 -34.7036
LeftHand  -0.11534 4.63151 16.0769
RightShoulder  -4.96962e-017 0 -2.36833e-017
RightArm  -63.8996 -6.60747 67.0162
RightForeArm  99.0093 80.5584 84.2073
RightHand  0.18237 -8.06977 -9.23256
LeftUpLeg  -12.9311 2.64725 5.80187
LeftLeg  26.6273 10.7827 4.52465
LeftFoot  -2.14585 -0.00816098 -0.274224
LeftToes  -27.1657 1.9075e-006 4.29692e-008
506
root  -53.3319 34.6406 26.5025 -169.802 39.8385 -175.842
RightUpLeg  -10.224 -24.6626 5.85637
RightLeg  12.2387 -11.1181 -1.65804
RightFoot  -0.172079 -0.00114819 0.264842
RightToes  -21.634 -0.0976074 -0.191261
Spine  -0.824843 -0.254825 1.9156
Spine1  -1.43853 0.0302357 4.08921
HEad  -67.8082 2.68881 -3.95147
LeftShoulder1  -1.94126e-019 -3.10601e-018 -2.51263e-017
LeftArm  -11.6327 -5.31848 -82.4185
LeftForeArm  24.6364 -71.5918 -34.3388
LeftHand  -0.126051 4.4563 14.2582
RightShoulder  -4.96962e-017 0 -2.36833e-017
RightArm  -66.7666 -0.888102 67.2645
RightForeArm  114.595 80.3199 101.776
RightHand  0.672951 -9.78469 -18.1961
LeftUpLeg  -15.0096 4.60465 6.09839
LeftLeg  31.4712 9.42938 4.92993
LeftFoot  -0.756565 -0.000729187 0.0510505
LeftToes  -31.548 1.9075e-006 4.29692e-008
507
root  -53.0786 34.6081 26.328 -170.591 39.2499 -176.177
RightUpLeg  -9.54768 -24.6316 5.32162
RightLeg  13.3039 -11.775 -1.97738
RightFoot  -1.05664 -0.00196611 0.465865
RightToes  -21.2159 -0.0967905 -0.190201
Spine  -0.707722 -0.238294 1.88203
Spine1  -1.21756 0.0607316 4.04198
HEad  -68.3558 5.07616 -3.22388
LeftShoulder1  -1.94126e-019 -3.10601e-018 -2.51263e-017
LeftArm  -6.78117 -10.1257 -83.8134
LeftForeArm  24.3829 -71.8957 -35.2294
LeftHand  -0.164329 3.84419 11.475
RightShoulder  -4.96962e-017 0 -2.36833e-017
RightArm  -66.5901 5.01483 68.0295
RightForeArm  121.314 79.925 109.327
RightHand  1.22219 -10.7487 -26.1705
LeftUpLeg  -16.7777 7.13029 5.93934
LeftLeg  35.673 9.45545 5.85359
LeftFoot  1.28492 -0.00347526 0.471492
LeftToes  -34.2202 1.9075e-006 4.29692e-008
508
root  -52.8456 34.5957 26.1131 -171.369 39.2031 -176.579
RightUpLeg  -8.72427 -24.7908 4.60299
RightLeg  13.9739 -11.6748 -2.10054
RightFoot  -1.63199 -0.000883164 0.592176
RightToes  -21.3054 -0.0960775 -0.190182
Spine  -0.581673 -0.13124 1.77733
Spine1  -0.989455 0.264016 3.85758
HEad  -68.6332 7.46769 -2.60584
LeftShoulder1  -1.94126e-019 -3.10601e-018 -2.51263e-017
LeftArm  -1.74562 -13.7797 -84.9895
LeftForeArm  26.3913 -72.7459 -37.3821
LeftHand  -0.210391 2.81548 9.0784
RightShoulder  -4.96962e-017 0 -2.36833e-017
RightArm  -64.1485 9.87872 69.089
RightForeArm  124.354 79.7785 111.908
RightHand  1.36709 -10.901 -28.2719
LeftUpLeg  -18.0897 9.71421 5.55122
LeftLeg  38.5453 11.6816 8.02285
LeftFoot  2.68899 -0.0176715 0.914494
LeftToes  -31.3065 1.9075e-006 4.29692e-008
509
root  -52.6476 34.6156 25.8578 -172.201 39.6494 -177.279
RightUpLeg  -7.90217 -24.6654 3.59555
RightLeg  14.2886 -11.4277 -2.12122
RightFoot  -1.94537 0.000142381 0.654073
RightToes  -21.5092 -0.0956577 -0.191053
Spine  -0.526293 0.0370846 1.55464
Spine1  -0.905226 0.569756 3.47066
HEad  -68.0306 9.75164 -1.97265
LeftShoulder1  -1.94126e-019 -3.10601e-018 -2.51263e-017
LeftArm  2.88118 -16.2933 -85.839
LeftForeArm  31.5803 -74.0214 -40.7515
LeftHand  -0.250726 2.02626 8.44594
RightShoulder  -4.96962e-017 0 -2.36833e-017
RightArm  -59.338 13.2815 70.4927
RightForeArm  122.493 80.0862 108.304
RightHand  1.05124 -10.1034 -25.665
LeftUpLeg  -19.0884 11.7925 4.94327
LeftLeg  39.6838 14.58 10.3591
LeftFoot  2.94141 -0.0263683 1.18858
LeftToes  -28.5571 1.9075e-006 4.29692e-008
